G04 Layer: TopSilkLayer*
G04 EasyEDA v6.4.17, 2021-03-05T14:08:29+01:00*
G04 e79a21ba503147348f05fdbb2aa03285,d81f5713b0f84f0ea64707c539aa2fa5,10*
G04 Gerber Generator version 0.2*
G04 Scale: 100 percent, Rotated: No, Reflected: No *
G04 Dimensions in millimeters *
G04 leading zeros omitted , absolute positions ,4 integer and 5 decimal *
%FSLAX45Y45*%
%MOMM*%

%ADD10C,0.2540*%
%ADD20C,0.1778*%
%ADD21C,0.3000*%
%ADD22C,0.2032*%
%ADD23C,0.1524*%

%LPD*%
G36*
X6541516Y5269992D02*
G01*
X6536029Y5269738D01*
X6530746Y5269077D01*
X6525615Y5267909D01*
X6520789Y5266283D01*
X6516217Y5264150D01*
X6512001Y5261610D01*
X6508191Y5258562D01*
X6504838Y5255107D01*
X6501993Y5251145D01*
X6499656Y5246725D01*
X6497929Y5241798D01*
X6496812Y5236464D01*
X6498793Y5233670D01*
X6501333Y5231536D01*
X6504330Y5230114D01*
X6507734Y5229606D01*
X6511594Y5230368D01*
X6514896Y5232755D01*
X6517640Y5237124D01*
X6519926Y5243576D01*
X6524244Y5259832D01*
X6530898Y5261000D01*
X6536435Y5261356D01*
X6542328Y5260797D01*
X6547662Y5259070D01*
X6552285Y5256326D01*
X6556197Y5252618D01*
X6559346Y5248046D01*
X6561683Y5242610D01*
X6563106Y5236464D01*
X6563614Y5229606D01*
X6563410Y5225186D01*
X6562750Y5220716D01*
X6561683Y5216296D01*
X6560159Y5211775D01*
X6558229Y5207152D01*
X6555790Y5202478D01*
X6552946Y5197602D01*
X6545834Y5187340D01*
X6536842Y5176164D01*
X6497828Y5131816D01*
X6497828Y5118100D01*
X6589268Y5118100D01*
X6589268Y5135372D01*
X6512052Y5135372D01*
X6538468Y5162296D01*
X6553352Y5178094D01*
X6564833Y5191201D01*
X6569456Y5196941D01*
X6573316Y5202275D01*
X6576466Y5207304D01*
X6578955Y5212080D01*
X6580886Y5216702D01*
X6582156Y5221274D01*
X6582918Y5225897D01*
X6583172Y5230622D01*
X6582918Y5236260D01*
X6582054Y5241544D01*
X6580682Y5246522D01*
X6578752Y5251094D01*
X6576212Y5255260D01*
X6573113Y5258968D01*
X6569405Y5262219D01*
X6565087Y5264912D01*
X6560108Y5267096D01*
X6554571Y5268671D01*
X6548374Y5269636D01*
G37*
G36*
X6440170Y5269230D02*
G01*
X6394450Y5257292D01*
X6394450Y5249672D01*
X6424168Y5252466D01*
X6424117Y5156149D01*
X6423660Y5129530D01*
X6392164Y5124958D01*
X6392164Y5118100D01*
X6474206Y5118100D01*
X6474206Y5124958D01*
X6442964Y5129530D01*
X6442456Y5165090D01*
X6442456Y5234940D01*
X6443218Y5266944D01*
G37*
G36*
X6601459Y5266944D02*
G01*
X6601459Y5259324D01*
X6618224Y5257546D01*
X6670294Y5116576D01*
X6679692Y5116576D01*
X6726428Y5256784D01*
X6745731Y5259578D01*
X6745731Y5266944D01*
X6694678Y5266944D01*
X6694678Y5258562D01*
X6715252Y5256530D01*
X6678930Y5144770D01*
X6640068Y5256784D01*
X6661658Y5258562D01*
X6661658Y5266944D01*
G37*
G36*
X6436614Y4889195D02*
G01*
X6430010Y4888941D01*
X6423609Y4888230D01*
X6417462Y4887061D01*
X6411569Y4885436D01*
X6405880Y4883353D01*
X6400495Y4880864D01*
X6395364Y4878019D01*
X6390589Y4874768D01*
X6386068Y4871161D01*
X6381902Y4867198D01*
X6378041Y4862880D01*
X6374536Y4858258D01*
X6371386Y4853279D01*
X6368643Y4848047D01*
X6366256Y4842560D01*
X6364274Y4836820D01*
X6362700Y4830775D01*
X6361582Y4824577D01*
X6360922Y4818126D01*
X6360668Y4811471D01*
X6360871Y4804714D01*
X6361582Y4798161D01*
X6362649Y4791862D01*
X6364173Y4785766D01*
X6366154Y4779975D01*
X6368440Y4774438D01*
X6371183Y4769205D01*
X6374282Y4764278D01*
X6377686Y4759604D01*
X6381496Y4755337D01*
X6385610Y4751374D01*
X6390081Y4747768D01*
X6394856Y4744516D01*
X6399885Y4741672D01*
X6405270Y4739233D01*
X6410858Y4737201D01*
X6416751Y4735576D01*
X6422898Y4734407D01*
X6429248Y4733696D01*
X6435852Y4733493D01*
X6442557Y4733696D01*
X6448958Y4734356D01*
X6455156Y4735423D01*
X6461150Y4736896D01*
X6467043Y4738776D01*
X6472834Y4740960D01*
X6484366Y4746447D01*
X6484874Y4798771D01*
X6498336Y4800041D01*
X6498336Y4807661D01*
X6440424Y4807661D01*
X6440424Y4800041D01*
X6464046Y4798263D01*
X6464300Y4747717D01*
X6458254Y4745736D01*
X6452158Y4744415D01*
X6445910Y4743653D01*
X6439408Y4743399D01*
X6433159Y4743704D01*
X6427266Y4744567D01*
X6421628Y4745990D01*
X6416344Y4748022D01*
X6411417Y4750562D01*
X6406845Y4753660D01*
X6402628Y4757267D01*
X6398818Y4761433D01*
X6395415Y4766056D01*
X6392418Y4771186D01*
X6389827Y4776774D01*
X6387693Y4782820D01*
X6386017Y4789322D01*
X6384798Y4796282D01*
X6384036Y4803648D01*
X6383782Y4811471D01*
X6384036Y4819345D01*
X6384848Y4826762D01*
X6386118Y4833772D01*
X6387896Y4840325D01*
X6390132Y4846370D01*
X6392773Y4851958D01*
X6395872Y4857089D01*
X6399326Y4861661D01*
X6403187Y4865776D01*
X6407404Y4869383D01*
X6411925Y4872431D01*
X6416802Y4874971D01*
X6421932Y4876952D01*
X6427368Y4878374D01*
X6433007Y4879238D01*
X6438900Y4879543D01*
X6445554Y4879136D01*
X6451955Y4877917D01*
X6458102Y4875885D01*
X6464046Y4872939D01*
X6469380Y4845253D01*
X6481572Y4845253D01*
X6481064Y4878273D01*
X6476390Y4880864D01*
X6471564Y4883048D01*
X6466535Y4884928D01*
X6461201Y4886502D01*
X6455613Y4887671D01*
X6449669Y4888484D01*
X6443370Y4888992D01*
G37*
G36*
X6673342Y4885639D02*
G01*
X6673342Y4878019D01*
X6693916Y4875733D01*
X6694322Y4853635D01*
X6694424Y4792167D01*
X6714744Y4792116D01*
X6714845Y4854498D01*
X6715252Y4877003D01*
X6734556Y4877003D01*
X6740652Y4876698D01*
X6746443Y4875936D01*
X6751878Y4874615D01*
X6756958Y4872736D01*
X6761683Y4870399D01*
X6766001Y4867503D01*
X6769963Y4864100D01*
X6773570Y4860188D01*
X6776720Y4855768D01*
X6779514Y4850892D01*
X6781901Y4845456D01*
X6783831Y4839614D01*
X6785406Y4833213D01*
X6786473Y4826355D01*
X6787184Y4818989D01*
X6787388Y4811217D01*
X6787184Y4803648D01*
X6786473Y4796485D01*
X6785356Y4789779D01*
X6783831Y4783480D01*
X6781850Y4777638D01*
X6779412Y4772253D01*
X6776567Y4767376D01*
X6773265Y4762906D01*
X6769608Y4758944D01*
X6765493Y4755489D01*
X6761022Y4752543D01*
X6756095Y4750104D01*
X6750812Y4748174D01*
X6745071Y4746802D01*
X6738975Y4745939D01*
X6732524Y4745685D01*
X6715252Y4745685D01*
X6714744Y4792116D01*
X6694423Y4792116D01*
X6694220Y4761433D01*
X6693916Y4746701D01*
X6673342Y4744415D01*
X6673342Y4736795D01*
X6734048Y4736795D01*
X6740601Y4736998D01*
X6746951Y4737557D01*
X6753047Y4738573D01*
X6758990Y4739944D01*
X6764629Y4741672D01*
X6770065Y4743805D01*
X6775196Y4746345D01*
X6780072Y4749241D01*
X6784594Y4752492D01*
X6788861Y4756099D01*
X6792772Y4760061D01*
X6796328Y4764379D01*
X6799529Y4769053D01*
X6802323Y4774082D01*
X6804761Y4779416D01*
X6806793Y4785106D01*
X6808368Y4791151D01*
X6809536Y4797501D01*
X6810248Y4804206D01*
X6810502Y4811217D01*
X6810298Y4818227D01*
X6809638Y4824933D01*
X6808571Y4831334D01*
X6807098Y4837379D01*
X6805269Y4843068D01*
X6803034Y4848453D01*
X6800443Y4853482D01*
X6797446Y4858156D01*
X6794144Y4862474D01*
X6790486Y4866436D01*
X6786524Y4869992D01*
X6782257Y4873244D01*
X6777685Y4876139D01*
X6772808Y4878628D01*
X6767626Y4880762D01*
X6762242Y4882489D01*
X6756552Y4883861D01*
X6750608Y4884826D01*
X6744462Y4885436D01*
X6738112Y4885639D01*
G37*
G36*
X6511290Y4885639D02*
G01*
X6511290Y4878019D01*
X6527292Y4875987D01*
X6529324Y4873193D01*
X6529070Y4747209D01*
X6510274Y4744415D01*
X6510274Y4736795D01*
X6562852Y4736795D01*
X6562852Y4744415D01*
X6539230Y4747463D01*
X6538722Y4860239D01*
X6629653Y4735271D01*
X6637528Y4735271D01*
X6637781Y4875479D01*
X6656324Y4878019D01*
X6656324Y4885639D01*
X6603746Y4885639D01*
X6603746Y4878019D01*
X6627622Y4875225D01*
X6627875Y4771847D01*
X6545580Y4885639D01*
G37*
G36*
X6423914Y3720795D02*
G01*
X6417310Y3720541D01*
X6410909Y3719829D01*
X6404762Y3718661D01*
X6398869Y3717036D01*
X6393180Y3714953D01*
X6387795Y3712464D01*
X6382664Y3709619D01*
X6377889Y3706368D01*
X6373368Y3702761D01*
X6369202Y3698798D01*
X6365341Y3694480D01*
X6361836Y3689858D01*
X6358686Y3684879D01*
X6355943Y3679647D01*
X6353556Y3674160D01*
X6351574Y3668420D01*
X6350000Y3662375D01*
X6348882Y3656177D01*
X6348222Y3649726D01*
X6347968Y3643071D01*
X6348171Y3636314D01*
X6348882Y3629761D01*
X6349949Y3623462D01*
X6351473Y3617366D01*
X6353454Y3611575D01*
X6355740Y3606037D01*
X6358483Y3600805D01*
X6361582Y3595878D01*
X6364986Y3591204D01*
X6368796Y3586937D01*
X6372910Y3582974D01*
X6377381Y3579368D01*
X6382156Y3576116D01*
X6387185Y3573272D01*
X6392570Y3570833D01*
X6398158Y3568801D01*
X6404051Y3567176D01*
X6410198Y3566007D01*
X6416548Y3565296D01*
X6423152Y3565093D01*
X6429857Y3565296D01*
X6436258Y3565956D01*
X6442456Y3567023D01*
X6448450Y3568496D01*
X6454343Y3570376D01*
X6460134Y3572560D01*
X6471666Y3578047D01*
X6472174Y3630371D01*
X6485636Y3631641D01*
X6485636Y3639261D01*
X6427724Y3639261D01*
X6427724Y3631641D01*
X6451346Y3629863D01*
X6451600Y3579317D01*
X6445554Y3577336D01*
X6439458Y3576015D01*
X6433210Y3575253D01*
X6426708Y3574999D01*
X6420459Y3575304D01*
X6414566Y3576167D01*
X6408928Y3577590D01*
X6403644Y3579622D01*
X6398717Y3582162D01*
X6394145Y3585260D01*
X6389928Y3588867D01*
X6386118Y3593033D01*
X6382715Y3597656D01*
X6379718Y3602786D01*
X6377127Y3608374D01*
X6374993Y3614420D01*
X6373317Y3620922D01*
X6372098Y3627882D01*
X6371336Y3635248D01*
X6371082Y3643071D01*
X6371336Y3650945D01*
X6372148Y3658362D01*
X6373418Y3665372D01*
X6375196Y3671925D01*
X6377432Y3677970D01*
X6380073Y3683558D01*
X6383172Y3688689D01*
X6386626Y3693261D01*
X6390487Y3697376D01*
X6394704Y3700983D01*
X6399225Y3704031D01*
X6404102Y3706571D01*
X6409232Y3708552D01*
X6414668Y3709974D01*
X6420307Y3710838D01*
X6426200Y3711143D01*
X6432854Y3710736D01*
X6439255Y3709517D01*
X6445402Y3707485D01*
X6451346Y3704539D01*
X6456680Y3676853D01*
X6468872Y3676853D01*
X6468364Y3709873D01*
X6463690Y3712464D01*
X6458864Y3714648D01*
X6453835Y3716528D01*
X6448501Y3718102D01*
X6442913Y3719271D01*
X6436969Y3720084D01*
X6430670Y3720592D01*
G37*
G36*
X6660642Y3717239D02*
G01*
X6660642Y3709619D01*
X6681216Y3707333D01*
X6681622Y3685235D01*
X6681724Y3623767D01*
X6702044Y3623716D01*
X6702145Y3686098D01*
X6702552Y3708603D01*
X6721856Y3708603D01*
X6727952Y3708298D01*
X6733743Y3707536D01*
X6739178Y3706215D01*
X6744258Y3704336D01*
X6748983Y3701999D01*
X6753301Y3699103D01*
X6757263Y3695700D01*
X6760870Y3691788D01*
X6764020Y3687368D01*
X6766814Y3682492D01*
X6769201Y3677056D01*
X6771131Y3671214D01*
X6772706Y3664813D01*
X6773773Y3657955D01*
X6774484Y3650589D01*
X6774688Y3642817D01*
X6774484Y3635248D01*
X6773773Y3628085D01*
X6772656Y3621379D01*
X6771131Y3615080D01*
X6769150Y3609238D01*
X6766712Y3603853D01*
X6763867Y3598976D01*
X6760565Y3594506D01*
X6756908Y3590544D01*
X6752793Y3587089D01*
X6748322Y3584143D01*
X6743395Y3581704D01*
X6738112Y3579774D01*
X6732371Y3578402D01*
X6726275Y3577539D01*
X6719824Y3577285D01*
X6702552Y3577285D01*
X6702044Y3623716D01*
X6681723Y3623716D01*
X6681520Y3593033D01*
X6681216Y3578301D01*
X6660642Y3576015D01*
X6660642Y3568395D01*
X6721348Y3568395D01*
X6727901Y3568598D01*
X6734251Y3569157D01*
X6740347Y3570173D01*
X6746290Y3571544D01*
X6751929Y3573272D01*
X6757365Y3575405D01*
X6762496Y3577945D01*
X6767372Y3580841D01*
X6771894Y3584092D01*
X6776161Y3587699D01*
X6780072Y3591661D01*
X6783628Y3595979D01*
X6786829Y3600653D01*
X6789623Y3605682D01*
X6792061Y3611016D01*
X6794093Y3616706D01*
X6795668Y3622751D01*
X6796836Y3629101D01*
X6797548Y3635806D01*
X6797802Y3642817D01*
X6797598Y3649827D01*
X6796938Y3656533D01*
X6795871Y3662934D01*
X6794398Y3668979D01*
X6792569Y3674668D01*
X6790334Y3680053D01*
X6787743Y3685082D01*
X6784746Y3689756D01*
X6781444Y3694074D01*
X6777786Y3698036D01*
X6773824Y3701592D01*
X6769557Y3704844D01*
X6764985Y3707739D01*
X6760108Y3710228D01*
X6754926Y3712362D01*
X6749542Y3714089D01*
X6743852Y3715461D01*
X6737908Y3716426D01*
X6731762Y3717036D01*
X6725412Y3717239D01*
G37*
G36*
X6498590Y3717239D02*
G01*
X6498590Y3709619D01*
X6514592Y3707587D01*
X6516624Y3704793D01*
X6516370Y3578809D01*
X6497574Y3576015D01*
X6497574Y3568395D01*
X6550152Y3568395D01*
X6550152Y3576015D01*
X6526530Y3579063D01*
X6526022Y3691839D01*
X6616953Y3566871D01*
X6624828Y3566871D01*
X6625081Y3707079D01*
X6643624Y3709619D01*
X6643624Y3717239D01*
X6591046Y3717239D01*
X6591046Y3709619D01*
X6614922Y3706825D01*
X6615175Y3603447D01*
X6532880Y3717239D01*
G37*
G36*
X6487414Y1549095D02*
G01*
X6480810Y1548841D01*
X6474409Y1548130D01*
X6468262Y1546961D01*
X6462369Y1545336D01*
X6456680Y1543253D01*
X6451295Y1540764D01*
X6446164Y1537919D01*
X6441389Y1534668D01*
X6436868Y1531061D01*
X6432702Y1527098D01*
X6428841Y1522780D01*
X6425336Y1518158D01*
X6422186Y1513179D01*
X6419443Y1507947D01*
X6417056Y1502460D01*
X6415074Y1496720D01*
X6413500Y1490675D01*
X6412382Y1484477D01*
X6411722Y1478026D01*
X6411468Y1471371D01*
X6411671Y1464614D01*
X6412382Y1458061D01*
X6413449Y1451762D01*
X6414973Y1445666D01*
X6416954Y1439875D01*
X6419240Y1434338D01*
X6421983Y1429105D01*
X6425082Y1424178D01*
X6428486Y1419504D01*
X6432296Y1415237D01*
X6436410Y1411274D01*
X6440881Y1407668D01*
X6445656Y1404416D01*
X6450685Y1401572D01*
X6456070Y1399133D01*
X6461658Y1397101D01*
X6467551Y1395476D01*
X6473698Y1394307D01*
X6480048Y1393596D01*
X6486652Y1393393D01*
X6493357Y1393596D01*
X6499758Y1394256D01*
X6505956Y1395323D01*
X6511950Y1396796D01*
X6517843Y1398676D01*
X6523634Y1400860D01*
X6535166Y1406347D01*
X6535674Y1458671D01*
X6549135Y1459941D01*
X6549135Y1467561D01*
X6491224Y1467561D01*
X6491224Y1459941D01*
X6514846Y1458163D01*
X6515100Y1407617D01*
X6509054Y1405636D01*
X6502958Y1404315D01*
X6496710Y1403553D01*
X6490208Y1403299D01*
X6483959Y1403604D01*
X6478066Y1404467D01*
X6472428Y1405890D01*
X6467144Y1407922D01*
X6462217Y1410462D01*
X6457645Y1413560D01*
X6453428Y1417167D01*
X6449618Y1421333D01*
X6446215Y1425956D01*
X6443218Y1431086D01*
X6440627Y1436674D01*
X6438493Y1442720D01*
X6436817Y1449222D01*
X6435598Y1456182D01*
X6434836Y1463548D01*
X6434582Y1471371D01*
X6434836Y1479245D01*
X6435648Y1486662D01*
X6436918Y1493672D01*
X6438696Y1500225D01*
X6440932Y1506270D01*
X6443573Y1511858D01*
X6446672Y1516989D01*
X6450126Y1521561D01*
X6453987Y1525676D01*
X6458204Y1529283D01*
X6462725Y1532331D01*
X6467602Y1534871D01*
X6472732Y1536852D01*
X6478168Y1538274D01*
X6483807Y1539138D01*
X6489700Y1539443D01*
X6496354Y1539036D01*
X6502755Y1537817D01*
X6508902Y1535785D01*
X6514846Y1532839D01*
X6520180Y1505153D01*
X6532372Y1505153D01*
X6531864Y1538173D01*
X6527190Y1540764D01*
X6522364Y1542948D01*
X6517335Y1544828D01*
X6512001Y1546402D01*
X6506413Y1547571D01*
X6500469Y1548384D01*
X6494170Y1548892D01*
G37*
G36*
X6724142Y1545539D02*
G01*
X6724142Y1537919D01*
X6744716Y1535633D01*
X6745122Y1513535D01*
X6745224Y1452067D01*
X6765544Y1452016D01*
X6765645Y1514398D01*
X6766052Y1536903D01*
X6785356Y1536903D01*
X6791452Y1536598D01*
X6797243Y1535836D01*
X6802678Y1534515D01*
X6807758Y1532636D01*
X6812483Y1530299D01*
X6816801Y1527403D01*
X6820763Y1524000D01*
X6824370Y1520088D01*
X6827520Y1515668D01*
X6830314Y1510792D01*
X6832701Y1505356D01*
X6834631Y1499514D01*
X6836206Y1493113D01*
X6837273Y1486255D01*
X6837984Y1478889D01*
X6838188Y1471117D01*
X6837984Y1463548D01*
X6837273Y1456385D01*
X6836156Y1449679D01*
X6834631Y1443380D01*
X6832650Y1437538D01*
X6830212Y1432153D01*
X6827367Y1427276D01*
X6824065Y1422806D01*
X6820408Y1418844D01*
X6816293Y1415389D01*
X6811822Y1412443D01*
X6806895Y1410004D01*
X6801612Y1408074D01*
X6795871Y1406702D01*
X6789775Y1405839D01*
X6783324Y1405585D01*
X6766052Y1405585D01*
X6765544Y1452016D01*
X6745223Y1452016D01*
X6745020Y1421333D01*
X6744716Y1406601D01*
X6724142Y1404315D01*
X6724142Y1396695D01*
X6784848Y1396695D01*
X6791401Y1396898D01*
X6797751Y1397457D01*
X6803847Y1398473D01*
X6809790Y1399844D01*
X6815429Y1401572D01*
X6820865Y1403705D01*
X6825996Y1406245D01*
X6830872Y1409141D01*
X6835394Y1412392D01*
X6839661Y1415999D01*
X6843572Y1419961D01*
X6847128Y1424279D01*
X6850329Y1428953D01*
X6853123Y1433982D01*
X6855561Y1439316D01*
X6857593Y1445006D01*
X6859168Y1451051D01*
X6860336Y1457401D01*
X6861048Y1464106D01*
X6861302Y1471117D01*
X6861098Y1478127D01*
X6860438Y1484833D01*
X6859371Y1491234D01*
X6857898Y1497279D01*
X6856069Y1502968D01*
X6853834Y1508353D01*
X6851243Y1513382D01*
X6848246Y1518056D01*
X6844944Y1522374D01*
X6841286Y1526336D01*
X6837324Y1529892D01*
X6833057Y1533144D01*
X6828485Y1536039D01*
X6823608Y1538528D01*
X6818426Y1540662D01*
X6813042Y1542389D01*
X6807352Y1543761D01*
X6801408Y1544726D01*
X6795262Y1545336D01*
X6788912Y1545539D01*
G37*
G36*
X6562090Y1545539D02*
G01*
X6562090Y1537919D01*
X6578092Y1535887D01*
X6580124Y1533093D01*
X6579870Y1407109D01*
X6561074Y1404315D01*
X6561074Y1396695D01*
X6613652Y1396695D01*
X6613652Y1404315D01*
X6590030Y1407363D01*
X6589522Y1520139D01*
X6680453Y1395171D01*
X6688328Y1395171D01*
X6688581Y1535379D01*
X6707124Y1537919D01*
X6707124Y1545539D01*
X6654546Y1545539D01*
X6654546Y1537919D01*
X6678422Y1535125D01*
X6678675Y1431747D01*
X6596380Y1545539D01*
G37*
G36*
X6549390Y1926589D02*
G01*
X6543700Y1925624D01*
X6539128Y1922881D01*
X6536029Y1918665D01*
X6534912Y1913128D01*
X6536029Y1907539D01*
X6539077Y1903069D01*
X6543700Y1900174D01*
X6549390Y1899157D01*
X6554825Y1900174D01*
X6559346Y1903120D01*
X6562445Y1907539D01*
X6563614Y1913128D01*
X6562445Y1918665D01*
X6559346Y1922881D01*
X6554825Y1925624D01*
G37*
G36*
X6462522Y1917700D02*
G01*
X6455664Y1917395D01*
X6449161Y1916480D01*
X6443014Y1914956D01*
X6437274Y1912874D01*
X6431991Y1910181D01*
X6427266Y1906981D01*
X6423152Y1903222D01*
X6419646Y1898904D01*
X6416802Y1894128D01*
X6414719Y1888845D01*
X6413449Y1883054D01*
X6412992Y1876806D01*
X6413296Y1871421D01*
X6414211Y1866392D01*
X6415735Y1861769D01*
X6417818Y1857451D01*
X6420408Y1853438D01*
X6423507Y1849729D01*
X6427063Y1846275D01*
X6431127Y1843074D01*
X6435598Y1840128D01*
X6440474Y1837334D01*
X6451346Y1832356D01*
X6466636Y1825853D01*
X6472428Y1822957D01*
X6477254Y1819910D01*
X6481114Y1816658D01*
X6484061Y1813102D01*
X6486093Y1809140D01*
X6487261Y1804670D01*
X6487668Y1799589D01*
X6487007Y1793239D01*
X6485128Y1787652D01*
X6482130Y1782927D01*
X6477965Y1778965D01*
X6472834Y1775917D01*
X6466789Y1773682D01*
X6459829Y1772361D01*
X6452108Y1771904D01*
X6445504Y1772208D01*
X6439560Y1773123D01*
X6434074Y1774799D01*
X6428740Y1777238D01*
X6423152Y1805178D01*
X6411722Y1805178D01*
X6410452Y1773936D01*
X6414516Y1771548D01*
X6419138Y1769262D01*
X6424168Y1767281D01*
X6429552Y1765503D01*
X6435293Y1764030D01*
X6441236Y1762912D01*
X6447383Y1762252D01*
X6453632Y1761998D01*
X6461150Y1762302D01*
X6468262Y1763318D01*
X6474866Y1764893D01*
X6480962Y1767128D01*
X6486499Y1769922D01*
X6491427Y1773326D01*
X6495694Y1777238D01*
X6499301Y1781657D01*
X6502146Y1786636D01*
X6504228Y1792122D01*
X6505498Y1798015D01*
X6505956Y1804416D01*
X6505702Y1809445D01*
X6504990Y1814169D01*
X6503771Y1818589D01*
X6502044Y1822754D01*
X6499707Y1826615D01*
X6496761Y1830324D01*
X6493256Y1833829D01*
X6489039Y1837131D01*
X6484213Y1840331D01*
X6478625Y1843430D01*
X6472377Y1846427D01*
X6450736Y1855419D01*
X6445758Y1858111D01*
X6441440Y1861108D01*
X6437833Y1864461D01*
X6435039Y1868170D01*
X6432956Y1872234D01*
X6431686Y1876806D01*
X6431280Y1881886D01*
X6431889Y1887880D01*
X6433616Y1893163D01*
X6436410Y1897634D01*
X6440119Y1901342D01*
X6444640Y1904238D01*
X6449923Y1906371D01*
X6455816Y1907641D01*
X6462268Y1908048D01*
X6467297Y1907793D01*
X6471869Y1906981D01*
X6476238Y1905558D01*
X6480556Y1903475D01*
X6486144Y1876806D01*
X6497828Y1876806D01*
X6499098Y1906016D01*
X6495389Y1908556D01*
X6491427Y1910842D01*
X6487210Y1912823D01*
X6482791Y1914550D01*
X6478117Y1915871D01*
X6473190Y1916887D01*
X6468008Y1917496D01*
G37*
G36*
X6635496Y1873757D02*
G01*
X6629806Y1873504D01*
X6624421Y1872691D01*
X6619341Y1871319D01*
X6614718Y1869490D01*
X6610451Y1867103D01*
X6606641Y1864258D01*
X6603339Y1860905D01*
X6600596Y1857146D01*
X6598361Y1852879D01*
X6596735Y1848154D01*
X6595719Y1843024D01*
X6595378Y1837182D01*
X6612636Y1837182D01*
X6613042Y1843328D01*
X6614261Y1848866D01*
X6616192Y1853844D01*
X6618884Y1858060D01*
X6622186Y1861464D01*
X6626148Y1864004D01*
X6630670Y1865579D01*
X6635750Y1866138D01*
X6640728Y1865579D01*
X6645097Y1864055D01*
X6648856Y1861566D01*
X6652056Y1858213D01*
X6654546Y1854098D01*
X6656374Y1849323D01*
X6657492Y1843887D01*
X6657848Y1837943D01*
X6657441Y1831695D01*
X6656273Y1826006D01*
X6654342Y1820925D01*
X6651752Y1816607D01*
X6648450Y1813052D01*
X6644538Y1810461D01*
X6640068Y1808784D01*
X6634988Y1808225D01*
X6630009Y1808734D01*
X6625590Y1810308D01*
X6621780Y1812747D01*
X6618579Y1816150D01*
X6616039Y1820316D01*
X6614159Y1825243D01*
X6613042Y1830882D01*
X6612636Y1837182D01*
X6595378Y1837182D01*
X6595668Y1832000D01*
X6596532Y1827022D01*
X6597954Y1822450D01*
X6599885Y1818284D01*
X6602323Y1814525D01*
X6605219Y1811223D01*
X6608572Y1808378D01*
X6612381Y1805939D01*
X6605270Y1798675D01*
X6600545Y1792376D01*
X6597954Y1786686D01*
X6597142Y1781302D01*
X6598107Y1775358D01*
X6600952Y1770481D01*
X6605524Y1766671D01*
X6611620Y1764030D01*
X6601612Y1758442D01*
X6594906Y1752549D01*
X6591198Y1746300D01*
X6590545Y1742439D01*
X6607302Y1742439D01*
X6607809Y1748028D01*
X6609384Y1753057D01*
X6612229Y1757883D01*
X6616446Y1762760D01*
X6621322Y1762404D01*
X6653022Y1762252D01*
X6663181Y1760880D01*
X6669938Y1757070D01*
X6673697Y1751431D01*
X6674866Y1744472D01*
X6674256Y1739696D01*
X6672427Y1735226D01*
X6669328Y1731264D01*
X6665112Y1727860D01*
X6659625Y1725015D01*
X6653022Y1722882D01*
X6645198Y1721561D01*
X6636258Y1721104D01*
X6629958Y1721408D01*
X6624320Y1722374D01*
X6619392Y1723948D01*
X6615226Y1726234D01*
X6611823Y1729232D01*
X6609384Y1732889D01*
X6607809Y1737309D01*
X6607302Y1742439D01*
X6590545Y1742439D01*
X6590030Y1739392D01*
X6590334Y1735480D01*
X6591198Y1731822D01*
X6592722Y1728368D01*
X6594856Y1725168D01*
X6597599Y1722272D01*
X6601053Y1719681D01*
X6605168Y1717395D01*
X6609943Y1715516D01*
X6615430Y1713992D01*
X6621627Y1712874D01*
X6628587Y1712214D01*
X6636258Y1711960D01*
X6644944Y1712366D01*
X6652920Y1713484D01*
X6660134Y1715262D01*
X6666636Y1717598D01*
X6672325Y1720545D01*
X6677304Y1723898D01*
X6681520Y1727657D01*
X6684975Y1731772D01*
X6687667Y1736191D01*
X6689598Y1740763D01*
X6690715Y1745488D01*
X6691122Y1750314D01*
X6690563Y1756562D01*
X6688937Y1762099D01*
X6686194Y1766925D01*
X6682384Y1770989D01*
X6677355Y1774189D01*
X6671208Y1776577D01*
X6663842Y1778000D01*
X6655308Y1778507D01*
X6625844Y1778507D01*
X6618884Y1779219D01*
X6614515Y1781251D01*
X6612280Y1784502D01*
X6611620Y1788922D01*
X6611975Y1792732D01*
X6613144Y1796237D01*
X6615074Y1799742D01*
X6617716Y1803400D01*
X6621830Y1802231D01*
X6626148Y1801317D01*
X6630670Y1800809D01*
X6635496Y1800606D01*
X6641134Y1800860D01*
X6646519Y1801723D01*
X6651498Y1803095D01*
X6656171Y1804974D01*
X6660438Y1807362D01*
X6664248Y1810257D01*
X6667550Y1813661D01*
X6670344Y1817522D01*
X6672630Y1821840D01*
X6674256Y1826615D01*
X6675272Y1831797D01*
X6675628Y1837436D01*
X6675221Y1843633D01*
X6674002Y1849272D01*
X6672072Y1854301D01*
X6669531Y1858772D01*
X6692138Y1858264D01*
X6692138Y1871472D01*
X6688836Y1873504D01*
X6663436Y1865122D01*
X6657797Y1868932D01*
X6651193Y1871624D01*
X6643725Y1873250D01*
G37*
G36*
X6555994Y1873504D02*
G01*
X6521957Y1861566D01*
X6521957Y1854962D01*
X6539992Y1853184D01*
X6540449Y1839518D01*
X6540246Y1774698D01*
X6523228Y1772157D01*
X6523228Y1765300D01*
X6574281Y1765300D01*
X6574281Y1772157D01*
X6559042Y1774698D01*
X6558838Y1793748D01*
X6558788Y1842007D01*
X6559042Y1871472D01*
G37*
G36*
X6502400Y1152144D02*
G01*
X6502400Y1144524D01*
X6519418Y1142746D01*
X6571488Y1001776D01*
X6580631Y1001776D01*
X6627368Y1141984D01*
X6646672Y1144778D01*
X6646672Y1152144D01*
X6595872Y1152144D01*
X6595872Y1143762D01*
X6616192Y1141730D01*
X6580124Y1029969D01*
X6541007Y1141984D01*
X6562852Y1143762D01*
X6562852Y1152144D01*
G37*
G36*
X6413246Y1152144D02*
G01*
X6408674Y1082802D01*
X6414262Y1081024D01*
X6419646Y1082344D01*
X6425031Y1083310D01*
X6430365Y1083868D01*
X6435598Y1084072D01*
X6440779Y1083818D01*
X6445605Y1083005D01*
X6450076Y1081633D01*
X6454190Y1079804D01*
X6457848Y1077417D01*
X6461150Y1074521D01*
X6463944Y1071168D01*
X6466281Y1067358D01*
X6468160Y1063091D01*
X6469532Y1058316D01*
X6470345Y1053134D01*
X6470650Y1047496D01*
X6470396Y1041806D01*
X6469684Y1036523D01*
X6468465Y1031595D01*
X6466738Y1027125D01*
X6464554Y1023010D01*
X6461963Y1019454D01*
X6458864Y1016304D01*
X6455359Y1013714D01*
X6451346Y1011631D01*
X6446977Y1010107D01*
X6442100Y1009192D01*
X6436868Y1008887D01*
X6433312Y1009040D01*
X6426352Y1010056D01*
X6422898Y1010919D01*
X6417056Y1031189D01*
X6414668Y1035456D01*
X6411468Y1037691D01*
X6407150Y1038352D01*
X6403746Y1037894D01*
X6400800Y1036624D01*
X6398412Y1034389D01*
X6396736Y1031240D01*
X6398818Y1024077D01*
X6401866Y1017879D01*
X6405778Y1012596D01*
X6410604Y1008278D01*
X6416243Y1004874D01*
X6422745Y1002436D01*
X6430060Y1001014D01*
X6438138Y1000506D01*
X6443929Y1000709D01*
X6449415Y1001420D01*
X6454648Y1002487D01*
X6459575Y1004011D01*
X6464147Y1005941D01*
X6468465Y1008227D01*
X6472377Y1010919D01*
X6475984Y1013917D01*
X6479184Y1017320D01*
X6482029Y1021029D01*
X6484467Y1025042D01*
X6486499Y1029309D01*
X6488125Y1033932D01*
X6489242Y1038809D01*
X6489954Y1043889D01*
X6490208Y1049274D01*
X6489801Y1056436D01*
X6488582Y1063040D01*
X6486652Y1069136D01*
X6484010Y1074623D01*
X6480657Y1079500D01*
X6476695Y1083767D01*
X6472123Y1087475D01*
X6466941Y1090472D01*
X6461252Y1092911D01*
X6455105Y1094587D01*
X6448501Y1095654D01*
X6441440Y1096010D01*
X6435496Y1095806D01*
X6429908Y1095197D01*
X6424422Y1094181D01*
X6419088Y1092708D01*
X6421882Y1134872D01*
X6486144Y1134872D01*
X6486144Y1152144D01*
G37*
G36*
X6554216Y4121302D02*
G01*
X6548729Y4121099D01*
X6543446Y4120387D01*
X6538315Y4119219D01*
X6533489Y4117594D01*
X6528917Y4115511D01*
X6524701Y4112920D01*
X6520891Y4109923D01*
X6517538Y4106418D01*
X6514693Y4102455D01*
X6512356Y4098036D01*
X6510629Y4093159D01*
X6509512Y4087774D01*
X6511493Y4084980D01*
X6514033Y4082846D01*
X6517030Y4081424D01*
X6520434Y4080916D01*
X6524294Y4081678D01*
X6527596Y4084116D01*
X6530340Y4088434D01*
X6532626Y4094886D01*
X6536944Y4111142D01*
X6543598Y4112310D01*
X6549135Y4112666D01*
X6555028Y4112107D01*
X6560362Y4110380D01*
X6564985Y4107637D01*
X6568897Y4103928D01*
X6572046Y4099356D01*
X6574383Y4093921D01*
X6575806Y4087774D01*
X6576314Y4080916D01*
X6576110Y4076496D01*
X6575450Y4072077D01*
X6574383Y4067606D01*
X6572859Y4063085D01*
X6570929Y4058513D01*
X6568490Y4053789D01*
X6565646Y4048912D01*
X6558534Y4038650D01*
X6549542Y4027474D01*
X6510528Y3983126D01*
X6510528Y3969410D01*
X6601968Y3969410D01*
X6601968Y3986682D01*
X6524752Y3986682D01*
X6551168Y4013606D01*
X6566052Y4029405D01*
X6577533Y4042511D01*
X6582156Y4048251D01*
X6586016Y4053586D01*
X6589166Y4058615D01*
X6591655Y4063390D01*
X6593586Y4068013D01*
X6594856Y4072585D01*
X6595618Y4077208D01*
X6595872Y4081932D01*
X6595618Y4087571D01*
X6594754Y4092905D01*
X6593382Y4097832D01*
X6591452Y4102404D01*
X6588912Y4106570D01*
X6585813Y4110278D01*
X6582105Y4113529D01*
X6577787Y4116222D01*
X6572808Y4118406D01*
X6567271Y4119981D01*
X6561074Y4120997D01*
G37*
G36*
X6452870Y4120540D02*
G01*
X6407150Y4108602D01*
X6407150Y4100982D01*
X6436868Y4103776D01*
X6436817Y4007459D01*
X6436360Y3980840D01*
X6404864Y3976268D01*
X6404864Y3969410D01*
X6486906Y3969410D01*
X6486906Y3976268D01*
X6455664Y3980840D01*
X6455156Y4016400D01*
X6455156Y4086250D01*
X6455918Y4118254D01*
G37*
G36*
X6614159Y4118254D02*
G01*
X6614159Y4110634D01*
X6630924Y4108856D01*
X6682994Y3967886D01*
X6692392Y3967886D01*
X6739128Y4108094D01*
X6758431Y4110888D01*
X6758431Y4118254D01*
X6707378Y4118254D01*
X6707378Y4109872D01*
X6727952Y4107840D01*
X6691630Y3996080D01*
X6652768Y4108094D01*
X6674358Y4109872D01*
X6674358Y4118254D01*
G37*
G36*
X4828540Y2833370D02*
G01*
X4828540Y2783840D01*
X4781804Y2783840D01*
X4781804Y2773172D01*
X4828540Y2773172D01*
X4828540Y2722880D01*
X4840224Y2722880D01*
X4840224Y2773172D01*
X4886706Y2773172D01*
X4886706Y2783840D01*
X4840224Y2783840D01*
X4840224Y2833370D01*
G37*
D23*
X1522984Y3556000D02*
G01*
X1631950Y3556000D01*
X1522984Y3556000D02*
G01*
X1522984Y3602736D01*
X1528063Y3618229D01*
X1533397Y3623563D01*
X1543812Y3628644D01*
X1559305Y3628644D01*
X1569720Y3623563D01*
X1574800Y3618229D01*
X1580134Y3602736D01*
X1580134Y3556000D01*
X1522984Y3662934D02*
G01*
X1631950Y3662934D01*
X1522984Y3662934D02*
G01*
X1522984Y3709670D01*
X1528063Y3725418D01*
X1533397Y3730497D01*
X1543812Y3735831D01*
X1554226Y3735831D01*
X1564639Y3730497D01*
X1569720Y3725418D01*
X1574800Y3709670D01*
X1574800Y3662934D01*
X1574800Y3699510D02*
G01*
X1631950Y3735831D01*
X1548892Y3775202D02*
G01*
X1543812Y3775202D01*
X1533397Y3780536D01*
X1528063Y3785615D01*
X1522984Y3796029D01*
X1522984Y3816857D01*
X1528063Y3827271D01*
X1533397Y3832352D01*
X1543812Y3837686D01*
X1554226Y3837686D01*
X1564639Y3832352D01*
X1580134Y3821937D01*
X1631950Y3770121D01*
X1631950Y3842765D01*
X4673600Y5766815D02*
G01*
X4673600Y5657850D01*
X4673600Y5766815D02*
G01*
X4720336Y5766815D01*
X4735829Y5761736D01*
X4741163Y5756402D01*
X4746243Y5745987D01*
X4746243Y5730494D01*
X4741163Y5720079D01*
X4735829Y5715000D01*
X4720336Y5709665D01*
X4673600Y5709665D01*
X4780534Y5766815D02*
G01*
X4780534Y5657850D01*
X4780534Y5766815D02*
G01*
X4827270Y5766815D01*
X4843018Y5761736D01*
X4848097Y5756402D01*
X4853431Y5745987D01*
X4853431Y5735573D01*
X4848097Y5725160D01*
X4843018Y5720079D01*
X4827270Y5715000D01*
X4780534Y5715000D01*
X4817109Y5715000D02*
G01*
X4853431Y5657850D01*
X4887722Y5745987D02*
G01*
X4898136Y5751321D01*
X4913629Y5766815D01*
X4913629Y5657850D01*
X1014984Y3568700D02*
G01*
X1123950Y3568700D01*
X1014984Y3568700D02*
G01*
X1123950Y3610355D01*
X1014984Y3651757D02*
G01*
X1123950Y3610355D01*
X1014984Y3651757D02*
G01*
X1123950Y3651757D01*
X1014984Y3686047D02*
G01*
X1123950Y3686047D01*
X1014984Y3686047D02*
G01*
X1014984Y3732784D01*
X1020063Y3748531D01*
X1025397Y3753612D01*
X1035812Y3758945D01*
X1046226Y3758945D01*
X1056639Y3753612D01*
X1061720Y3748531D01*
X1066800Y3732784D01*
X1066800Y3686047D01*
X1066800Y3722370D02*
G01*
X1123950Y3758945D01*
X1035812Y3793236D02*
G01*
X1030478Y3803650D01*
X1014984Y3819144D01*
X1123950Y3819144D01*
X4672584Y3695700D02*
G01*
X4781550Y3695700D01*
X4672584Y3695700D02*
G01*
X4672584Y3742436D01*
X4677663Y3757929D01*
X4682997Y3763263D01*
X4693411Y3768344D01*
X4703825Y3768344D01*
X4714240Y3763263D01*
X4719320Y3757929D01*
X4724400Y3742436D01*
X4724400Y3695700D01*
X4724400Y3732021D02*
G01*
X4781550Y3768344D01*
X4672584Y3833876D02*
G01*
X4677663Y3823462D01*
X4688077Y3813047D01*
X4698491Y3807968D01*
X4714240Y3802634D01*
X4740147Y3802634D01*
X4755641Y3807968D01*
X4766056Y3813047D01*
X4776470Y3823462D01*
X4781550Y3833876D01*
X4781550Y3854704D01*
X4776470Y3865118D01*
X4766056Y3875531D01*
X4755641Y3880612D01*
X4740147Y3885945D01*
X4714240Y3885945D01*
X4698491Y3880612D01*
X4688077Y3875531D01*
X4677663Y3865118D01*
X4672584Y3854704D01*
X4672584Y3833876D01*
X4760975Y3849370D02*
G01*
X4791963Y3880612D01*
X4693411Y3920236D02*
G01*
X4688077Y3930650D01*
X4672584Y3946144D01*
X4781550Y3946144D01*
X5962141Y3303015D02*
G01*
X5951727Y3297936D01*
X5941313Y3287521D01*
X5935979Y3277107D01*
X5930900Y3261360D01*
X5930900Y3235452D01*
X5935979Y3219957D01*
X5941313Y3209544D01*
X5951727Y3199129D01*
X5962141Y3194050D01*
X5982970Y3194050D01*
X5993129Y3199129D01*
X6003543Y3209544D01*
X6008877Y3219957D01*
X6013958Y3235452D01*
X6013958Y3261360D01*
X6008877Y3277107D01*
X6003543Y3287521D01*
X5993129Y3297936D01*
X5982970Y3303015D01*
X5962141Y3303015D01*
X5977636Y3214623D02*
G01*
X6008877Y3183636D01*
X6048247Y3282187D02*
G01*
X6058661Y3287521D01*
X6074409Y3303015D01*
X6074409Y3194050D01*
X1815084Y4470400D02*
G01*
X1924050Y4470400D01*
X1815084Y4470400D02*
G01*
X1924050Y4512055D01*
X1815084Y4553457D02*
G01*
X1924050Y4512055D01*
X1815084Y4553457D02*
G01*
X1924050Y4553457D01*
X1840992Y4665726D02*
G01*
X1830578Y4660645D01*
X1820163Y4650231D01*
X1815084Y4639818D01*
X1815084Y4618989D01*
X1820163Y4608576D01*
X1830578Y4598162D01*
X1840992Y4593081D01*
X1856739Y4587747D01*
X1882647Y4587747D01*
X1898142Y4593081D01*
X1908555Y4598162D01*
X1918970Y4608576D01*
X1924050Y4618989D01*
X1924050Y4639818D01*
X1918970Y4650231D01*
X1908555Y4660645D01*
X1898142Y4665726D01*
X1835912Y4700015D02*
G01*
X1830578Y4710429D01*
X1815084Y4725923D01*
X1924050Y4725923D01*
X5317743Y2494534D02*
G01*
X5307329Y2484120D01*
X5302250Y2468626D01*
X5302250Y2447797D01*
X5307329Y2432304D01*
X5317743Y2421889D01*
X5328158Y2421889D01*
X5338572Y2426970D01*
X5343906Y2432304D01*
X5348986Y2442718D01*
X5359400Y2473960D01*
X5364479Y2484120D01*
X5369813Y2489454D01*
X5380227Y2494534D01*
X5395722Y2494534D01*
X5406136Y2484120D01*
X5411215Y2468626D01*
X5411215Y2447797D01*
X5406136Y2432304D01*
X5395722Y2421889D01*
X5328158Y2606802D02*
G01*
X5317743Y2601721D01*
X5307329Y2591307D01*
X5302250Y2580894D01*
X5302250Y2560065D01*
X5307329Y2549652D01*
X5317743Y2539237D01*
X5328158Y2534157D01*
X5343906Y2528823D01*
X5369813Y2528823D01*
X5385308Y2534157D01*
X5395722Y2539237D01*
X5406136Y2549652D01*
X5411215Y2560065D01*
X5411215Y2580894D01*
X5406136Y2591307D01*
X5395722Y2601721D01*
X5385308Y2606802D01*
X5369813Y2606802D01*
X5369813Y2580894D02*
G01*
X5369813Y2606802D01*
X5323077Y2641092D02*
G01*
X5317743Y2651505D01*
X5302250Y2667000D01*
X5411215Y2667000D01*
X6140450Y4838192D02*
G01*
X6249415Y4838192D01*
X6140450Y4838192D02*
G01*
X6140450Y4884928D01*
X6145529Y4900421D01*
X6150863Y4905755D01*
X6161277Y4910836D01*
X6176772Y4910836D01*
X6187186Y4905755D01*
X6192265Y4900421D01*
X6197600Y4884928D01*
X6197600Y4838192D01*
X6140450Y4945126D02*
G01*
X6249415Y4971287D01*
X6140450Y4997195D02*
G01*
X6249415Y4971287D01*
X6140450Y4997195D02*
G01*
X6249415Y5023104D01*
X6140450Y5049012D02*
G01*
X6249415Y5023104D01*
X6140450Y5083302D02*
G01*
X6249415Y5083302D01*
X6140450Y5083302D02*
G01*
X6140450Y5130292D01*
X6145529Y5145786D01*
X6150863Y5150865D01*
X6161277Y5156200D01*
X6171691Y5156200D01*
X6182106Y5150865D01*
X6187186Y5145786D01*
X6192265Y5130292D01*
X6192265Y5083302D01*
X6192265Y5119878D02*
G01*
X6249415Y5156200D01*
X6145784Y3619500D02*
G01*
X6254750Y3619500D01*
X6145784Y3619500D02*
G01*
X6145784Y3666236D01*
X6150863Y3681729D01*
X6156197Y3687063D01*
X6166611Y3692144D01*
X6177025Y3692144D01*
X6187440Y3687063D01*
X6192520Y3681729D01*
X6197600Y3666236D01*
X6197600Y3619500D01*
X6197600Y3655821D02*
G01*
X6254750Y3692144D01*
X6145784Y3726434D02*
G01*
X6254750Y3726434D01*
X6145784Y3726434D02*
G01*
X6145784Y3793997D01*
X6197600Y3726434D02*
G01*
X6197600Y3768089D01*
X6254750Y3726434D02*
G01*
X6254750Y3793997D01*
X6145784Y3828287D02*
G01*
X6254750Y3828287D01*
X6254750Y3828287D02*
G01*
X6254750Y3890771D01*
X6145784Y3966463D02*
G01*
X6254750Y3925062D01*
X6145784Y3966463D02*
G01*
X6254750Y4008120D01*
X6218427Y3940555D02*
G01*
X6218427Y3992626D01*
X6145784Y4042410D02*
G01*
X6197600Y4084065D01*
X6254750Y4084065D01*
X6145784Y4125468D02*
G01*
X6197600Y4084065D01*
X6171184Y1295400D02*
G01*
X6280150Y1295400D01*
X6171184Y1295400D02*
G01*
X6171184Y1342136D01*
X6176263Y1357629D01*
X6181597Y1362963D01*
X6192011Y1368044D01*
X6202425Y1368044D01*
X6212840Y1362963D01*
X6217920Y1357629D01*
X6223000Y1342136D01*
X6223000Y1295400D02*
G01*
X6223000Y1342136D01*
X6228334Y1357629D01*
X6233413Y1362963D01*
X6243827Y1368044D01*
X6259575Y1368044D01*
X6269990Y1362963D01*
X6275070Y1357629D01*
X6280150Y1342136D01*
X6280150Y1295400D01*
X6171184Y1438910D02*
G01*
X6280150Y1438910D01*
X6171184Y1402334D02*
G01*
X6171184Y1475231D01*
X6171184Y1509521D02*
G01*
X6280150Y1509521D01*
X6171184Y1509521D02*
G01*
X6280150Y1582165D01*
X6171184Y1582165D02*
G01*
X6280150Y1582165D01*
X4521200Y5208015D02*
G01*
X4521200Y5099050D01*
X4521200Y5208015D02*
G01*
X4567936Y5208015D01*
X4583429Y5202936D01*
X4588763Y5197602D01*
X4593843Y5187187D01*
X4593843Y5171694D01*
X4588763Y5161279D01*
X4583429Y5156200D01*
X4567936Y5150865D01*
X4521200Y5150865D01*
X4628134Y5208015D02*
G01*
X4628134Y5099050D01*
X4628134Y5208015D02*
G01*
X4664709Y5208015D01*
X4680204Y5202936D01*
X4690618Y5192521D01*
X4695697Y5182107D01*
X4701031Y5166360D01*
X4701031Y5140452D01*
X4695697Y5124957D01*
X4690618Y5114544D01*
X4680204Y5104129D01*
X4664709Y5099050D01*
X4628134Y5099050D01*
X4735322Y5187187D02*
G01*
X4745736Y5192521D01*
X4761229Y5208015D01*
X4761229Y5099050D01*
X5050536Y3635755D02*
G01*
X5159502Y3635755D01*
X5050536Y3635755D02*
G01*
X5050536Y3672078D01*
X5055615Y3687826D01*
X5066029Y3697986D01*
X5076443Y3703320D01*
X5092191Y3708400D01*
X5118100Y3708400D01*
X5133593Y3703320D01*
X5144008Y3697986D01*
X5154422Y3687826D01*
X5159502Y3672078D01*
X5159502Y3635755D01*
X5050536Y3773931D02*
G01*
X5055615Y3763518D01*
X5066029Y3753104D01*
X5076443Y3748023D01*
X5092191Y3742689D01*
X5118100Y3742689D01*
X5133593Y3748023D01*
X5144008Y3753104D01*
X5154422Y3763518D01*
X5159502Y3773931D01*
X5159502Y3794760D01*
X5154422Y3805173D01*
X5144008Y3815587D01*
X5133593Y3820668D01*
X5118100Y3826002D01*
X5092191Y3826002D01*
X5076443Y3820668D01*
X5066029Y3815587D01*
X5055615Y3805173D01*
X5050536Y3794760D01*
X5050536Y3773931D01*
X5138927Y3789426D02*
G01*
X5169915Y3820668D01*
X5071363Y3860292D02*
G01*
X5066029Y3870705D01*
X5050536Y3886200D01*
X5159502Y3886200D01*
X2984500Y811784D02*
G01*
X2984500Y889762D01*
X2979420Y905255D01*
X2969006Y915670D01*
X2953258Y920750D01*
X2942843Y920750D01*
X2927350Y915670D01*
X2916936Y905255D01*
X2911856Y889762D01*
X2911856Y811784D01*
X2799588Y837692D02*
G01*
X2804668Y827278D01*
X2815081Y816863D01*
X2825495Y811784D01*
X2846324Y811784D01*
X2856738Y816863D01*
X2867152Y827278D01*
X2872231Y837692D01*
X2877565Y853439D01*
X2877565Y879347D01*
X2872231Y894842D01*
X2867152Y905255D01*
X2856738Y915670D01*
X2846324Y920750D01*
X2825495Y920750D01*
X2815081Y915670D01*
X2804668Y905255D01*
X2799588Y894842D01*
X2765297Y832612D02*
G01*
X2754884Y827278D01*
X2739390Y811784D01*
X2739390Y920750D01*
D22*
X2899156Y1788413D02*
G01*
X3092958Y1714500D01*
X2899156Y1788413D02*
G01*
X3092958Y1862328D01*
X3028441Y1742186D02*
G01*
X3028441Y1834642D01*
X2963672Y1923287D02*
G01*
X3092958Y1923287D01*
X3019043Y1923287D02*
G01*
X2991358Y1932431D01*
X2973070Y1950973D01*
X2963672Y1969515D01*
X2963672Y1997202D01*
X2899156Y2168905D02*
G01*
X3092958Y2168905D01*
X2991358Y2168905D02*
G01*
X2973070Y2150363D01*
X2963672Y2132076D01*
X2963672Y2104389D01*
X2973070Y2085847D01*
X2991358Y2067305D01*
X3019043Y2058162D01*
X3037586Y2058162D01*
X3065272Y2067305D01*
X3083813Y2085847D01*
X3092958Y2104389D01*
X3092958Y2132076D01*
X3083813Y2150363D01*
X3065272Y2168905D01*
X2963672Y2229865D02*
G01*
X3056127Y2229865D01*
X3083813Y2239010D01*
X3092958Y2257552D01*
X3092958Y2285237D01*
X3083813Y2303779D01*
X3056127Y2331465D01*
X2963672Y2331465D02*
G01*
X3092958Y2331465D01*
X2899156Y2392426D02*
G01*
X2908300Y2401570D01*
X2899156Y2410968D01*
X2889758Y2401570D01*
X2899156Y2392426D01*
X2963672Y2401570D02*
G01*
X3092958Y2401570D01*
X2963672Y2471928D02*
G01*
X3092958Y2471928D01*
X3000756Y2471928D02*
G01*
X2973070Y2499613D01*
X2963672Y2518155D01*
X2963672Y2545842D01*
X2973070Y2564129D01*
X3000756Y2573528D01*
X3092958Y2573528D01*
X2963672Y2680715D02*
G01*
X2973070Y2662173D01*
X2991358Y2643631D01*
X3019043Y2634487D01*
X3037586Y2634487D01*
X3065272Y2643631D01*
X3083813Y2662173D01*
X3092958Y2680715D01*
X3092958Y2708402D01*
X3083813Y2726689D01*
X3065272Y2745231D01*
X3037586Y2754629D01*
X3019043Y2754629D01*
X2991358Y2745231D01*
X2973070Y2726689D01*
X2963672Y2708402D01*
X2963672Y2680715D01*
X2899156Y2957829D02*
G01*
X3092958Y2957829D01*
X2899156Y2957829D02*
G01*
X3092958Y3087115D01*
X2899156Y3087115D02*
G01*
X3092958Y3087115D01*
X2963672Y3258820D02*
G01*
X3092958Y3258820D01*
X2991358Y3258820D02*
G01*
X2973070Y3240278D01*
X2963672Y3221989D01*
X2963672Y3194050D01*
X2973070Y3175762D01*
X2991358Y3157220D01*
X3019043Y3148076D01*
X3037586Y3148076D01*
X3065272Y3157220D01*
X3083813Y3175762D01*
X3092958Y3194050D01*
X3092958Y3221989D01*
X3083813Y3240278D01*
X3065272Y3258820D01*
X2963672Y3319779D02*
G01*
X3092958Y3319779D01*
X3000756Y3319779D02*
G01*
X2973070Y3347465D01*
X2963672Y3366007D01*
X2963672Y3393694D01*
X2973070Y3412236D01*
X3000756Y3421379D01*
X3092958Y3421379D01*
X2963672Y3528568D02*
G01*
X2973070Y3510026D01*
X2991358Y3491484D01*
X3019043Y3482339D01*
X3037586Y3482339D01*
X3065272Y3491484D01*
X3083813Y3510026D01*
X3092958Y3528568D01*
X3092958Y3556254D01*
X3083813Y3574795D01*
X3065272Y3593084D01*
X3037586Y3602481D01*
X3019043Y3602481D01*
X2991358Y3593084D01*
X2973070Y3574795D01*
X2963672Y3556254D01*
X2963672Y3528568D01*
X2963672Y3805681D02*
G01*
X3092958Y3861054D01*
X2963672Y3916426D02*
G01*
X3092958Y3861054D01*
X2899156Y3995928D02*
G01*
X2899156Y4097528D01*
X2973070Y4042155D01*
X2973070Y4069842D01*
X2982213Y4088129D01*
X2991358Y4097528D01*
X3019043Y4106671D01*
X3037586Y4106671D01*
X3065272Y4097528D01*
X3083813Y4078986D01*
X3092958Y4051300D01*
X3092958Y4023613D01*
X3083813Y3995928D01*
X3074670Y3986529D01*
X3056127Y3977386D01*
X3046729Y4177029D02*
G01*
X3056127Y4167631D01*
X3065272Y4177029D01*
X3056127Y4186173D01*
X3046729Y4177029D01*
X2899156Y4302505D02*
G01*
X2908300Y4274820D01*
X2935986Y4256278D01*
X2982213Y4247134D01*
X3009900Y4247134D01*
X3056127Y4256278D01*
X3083813Y4274820D01*
X3092958Y4302505D01*
X3092958Y4321047D01*
X3083813Y4348734D01*
X3056127Y4367276D01*
X3009900Y4376420D01*
X2982213Y4376420D01*
X2935986Y4367276D01*
X2908300Y4348734D01*
X2899156Y4321047D01*
X2899156Y4302505D01*
D23*
X1091184Y2565400D02*
G01*
X1200150Y2565400D01*
X1091184Y2565400D02*
G01*
X1091184Y2612136D01*
X1096263Y2627629D01*
X1101597Y2632963D01*
X1112012Y2638044D01*
X1127505Y2638044D01*
X1137920Y2632963D01*
X1143000Y2627629D01*
X1148334Y2612136D01*
X1148334Y2565400D01*
X1117092Y2750312D02*
G01*
X1106678Y2745231D01*
X1096263Y2734818D01*
X1091184Y2724404D01*
X1091184Y2703576D01*
X1096263Y2693162D01*
X1106678Y2682747D01*
X1117092Y2677668D01*
X1132839Y2672334D01*
X1158747Y2672334D01*
X1174242Y2677668D01*
X1184655Y2682747D01*
X1195070Y2693162D01*
X1200150Y2703576D01*
X1200150Y2724404D01*
X1195070Y2734818D01*
X1184655Y2745231D01*
X1174242Y2750312D01*
X1117092Y2789936D02*
G01*
X1112012Y2789936D01*
X1101597Y2795015D01*
X1096263Y2800350D01*
X1091184Y2810510D01*
X1091184Y2831337D01*
X1096263Y2841752D01*
X1101597Y2847086D01*
X1112012Y2852165D01*
X1122426Y2852165D01*
X1132839Y2847086D01*
X1148334Y2836671D01*
X1200150Y2784602D01*
X1200150Y2857500D01*
G36*
X1333500Y4443374D02*
G01*
X1343253Y4433824D01*
X1353515Y4424832D01*
X1364335Y4416450D01*
X1375613Y4408728D01*
X1387348Y4401718D01*
X1399489Y4395419D01*
X1411986Y4389882D01*
X1424736Y4385056D01*
X1437843Y4381042D01*
X1451102Y4377791D01*
X1464564Y4375353D01*
X1478127Y4373727D01*
X1491742Y4372914D01*
X1505407Y4372914D01*
X1519072Y4373727D01*
X1532636Y4375353D01*
X1546098Y4377791D01*
X1559356Y4381042D01*
X1572412Y4385056D01*
X1585214Y4389882D01*
X1597710Y4395419D01*
X1609852Y4401718D01*
X1621586Y4408728D01*
X1632864Y4416450D01*
X1643684Y4424832D01*
X1653946Y4433824D01*
X1663700Y4443374D01*
G37*
D10*
X1714500Y3365500D02*
G01*
X1714500Y3340100D01*
X1714500Y3873500D02*
G01*
X1714500Y3898900D01*
X1714500Y3365500D02*
G01*
X1638300Y3365500D01*
X1790700Y3365500D02*
G01*
X1714500Y3365500D01*
X1790700Y3873500D02*
G01*
X1790700Y3365500D01*
X1714500Y3873500D02*
G01*
X1790700Y3873500D01*
X1638300Y3873500D02*
G01*
X1714500Y3873500D01*
X1638300Y3365500D02*
G01*
X1638300Y3873500D01*
X4546600Y5537200D02*
G01*
X4521200Y5537200D01*
X5054600Y5537200D02*
G01*
X5080000Y5537200D01*
X4546600Y5537200D02*
G01*
X4546600Y5613400D01*
X4546600Y5461000D02*
G01*
X4546600Y5537200D01*
X5054600Y5461000D02*
G01*
X4546600Y5461000D01*
X5054600Y5537200D02*
G01*
X5054600Y5461000D01*
X5054600Y5613400D02*
G01*
X5054600Y5537200D01*
X4546600Y5613400D02*
G01*
X5054600Y5613400D01*
X1219200Y3365500D02*
G01*
X1219200Y3340100D01*
X1219200Y3873500D02*
G01*
X1219200Y3898900D01*
X1219200Y3365500D02*
G01*
X1143000Y3365500D01*
X1295400Y3365500D02*
G01*
X1219200Y3365500D01*
X1295400Y3873500D02*
G01*
X1295400Y3365500D01*
X1219200Y3873500D02*
G01*
X1295400Y3873500D01*
X1143000Y3873500D02*
G01*
X1219200Y3873500D01*
X1143000Y3365500D02*
G01*
X1143000Y3873500D01*
X4724400Y4089400D02*
G01*
X4724400Y4114800D01*
X4724400Y3581400D02*
G01*
X4724400Y3556000D01*
X4724400Y4089400D02*
G01*
X4800600Y4089400D01*
X4648200Y4089400D02*
G01*
X4724400Y4089400D01*
X4648200Y3581400D02*
G01*
X4648200Y4089400D01*
X4724400Y3581400D02*
G01*
X4648200Y3581400D01*
X4800600Y3581400D02*
G01*
X4724400Y3581400D01*
X4800600Y4089400D02*
G01*
X4800600Y3581400D01*
X5969000Y2870200D02*
G01*
X5573013Y2870200D01*
X1693217Y4688227D02*
G01*
X1613217Y4688227D01*
X1653217Y4728227D02*
G01*
X1653217Y4648227D01*
X6108700Y5435600D02*
G01*
X5346700Y5435600D01*
X6108700Y5435600D02*
G01*
X6108700Y4546600D01*
X5346700Y4546600D01*
X5346700Y4546600D02*
G01*
X5346700Y5435600D01*
X6096000Y4279900D02*
G01*
X5334000Y4279900D01*
X6096000Y4279900D02*
G01*
X6096000Y3390900D01*
X5334000Y3390900D01*
X5334000Y3390900D02*
G01*
X5334000Y4279900D01*
X6121400Y2082800D02*
G01*
X5359400Y2082800D01*
X6121400Y2082800D02*
G01*
X6121400Y812800D01*
X5359400Y2082800D02*
G01*
X5359400Y812800D01*
X6121400Y812800D02*
G01*
X5359400Y812800D01*
X4375500Y5067599D02*
G01*
X4895499Y5067599D01*
X4895499Y5067599D02*
G01*
X4895499Y4787600D01*
X4375500Y4787600D02*
G01*
X4895499Y4787600D01*
X4375500Y5067599D02*
G01*
X4375500Y4787600D01*
X4471426Y5067599D02*
G01*
X4471426Y4787600D01*
X5258099Y4082699D02*
G01*
X5258099Y3562700D01*
X5258099Y3562700D02*
G01*
X4978100Y3562700D01*
X4978100Y4082699D02*
G01*
X4978100Y3562700D01*
X5258099Y4082699D02*
G01*
X4978100Y4082699D01*
X5258099Y3986773D02*
G01*
X4978100Y3986773D01*
X3873500Y977900D02*
G01*
X3873500Y5295900D01*
X2095500Y977900D02*
G01*
X3873500Y977900D01*
X2095500Y5295900D02*
G01*
X2095500Y977900D01*
X3873500Y5295900D02*
G01*
X2095500Y5295900D01*
X3365500Y4464913D02*
G01*
X2603500Y4464913D01*
X2603500Y5414924D01*
X3365500Y5414924D01*
X3365500Y4464913D01*
D20*
X1473200Y2984500D02*
G01*
X1727200Y2984500D01*
X1727200Y2171700D01*
X1219200Y2171700D01*
X1219200Y2984500D01*
X1473200Y2984500D01*
D10*
G75*
G01*
X5981700Y3035300D02*
G03*
X5550177Y3030461I-214376J-125982D01*
D21*
G75*
G01
X1748617Y4622810D02*
G03X1748617Y4622810I-250012J0D01*
M02*
