G04 Layer: TopLayer*
G04 EasyEDA v6.4.17, 2021-03-05T14:08:29+01:00*
G04 e79a21ba503147348f05fdbb2aa03285,d81f5713b0f84f0ea64707c539aa2fa5,10*
G04 Gerber Generator version 0.2*
G04 Scale: 100 percent, Rotated: No, Reflected: No *
G04 Dimensions in millimeters *
G04 leading zeros omitted , absolute positions ,4 integer and 5 decimal *
%FSLAX45Y45*%
%MOMM*%

%ADD11C,1.8796*%
%ADD12C,2.2200*%
%ADD13C,1.3000*%
%ADD14C,2.0000*%
%ADD15C,2.2000*%
%ADD16C,1.8000*%
%ADD17R,2.2860X1.7780*%
%ADD18C,1.7780*%

%LPD*%
D11*
G01*
X1714500Y3238500D03*
G01*
X1714500Y4000500D03*
G01*
X4419600Y5537200D03*
G01*
X5181600Y5537200D03*
G01*
X1219200Y3238500D03*
G01*
X1219200Y4000500D03*
G01*
X4724400Y4216400D03*
G01*
X4724400Y3454400D03*
D12*
G01*
X6019800Y2946400D03*
G01*
X5765800Y3162300D03*
G01*
X5511800Y2946400D03*
D13*
G01*
X1498605Y4722809D03*
G01*
X1498605Y4522810D03*
D14*
G01*
X4660900Y2240279D03*
G01*
X4660900Y2890520D03*
D15*
G01*
X5791200Y5181600D03*
G01*
X5791200Y4800600D03*
G01*
X5778500Y4025900D03*
G01*
X5778500Y3644900D03*
D14*
G01*
X5803900Y1828800D03*
G01*
X5803900Y1447800D03*
G01*
X5803900Y1066800D03*
D16*
G01*
X4175506Y4927600D03*
G01*
X5095493Y4927600D03*
G01*
X5118100Y4282694D03*
G01*
X5118100Y3362705D03*
D17*
G01*
X3746500Y1358900D03*
D18*
G01*
X1473200Y2324100D03*
G01*
X1473200Y2832100D03*
X3721100Y1612900D02*
G01*
X3771900Y1612900D01*
X3721100Y1866900D02*
G01*
X3771900Y1866900D01*
X3721100Y2120900D02*
G01*
X3771900Y2120900D01*
X3721100Y2374900D02*
G01*
X3771900Y2374900D01*
X3721100Y2628900D02*
G01*
X3771900Y2628900D01*
X3721100Y2882900D02*
G01*
X3771900Y2882900D01*
X3721100Y3136900D02*
G01*
X3771900Y3136900D01*
X3721100Y3390900D02*
G01*
X3771900Y3390900D01*
X3721100Y3644900D02*
G01*
X3771900Y3644900D01*
X3721100Y3898900D02*
G01*
X3771900Y3898900D01*
X3721100Y4152900D02*
G01*
X3771900Y4152900D01*
X3721100Y4406900D02*
G01*
X3771900Y4406900D01*
X3721100Y4660900D02*
G01*
X3771900Y4660900D01*
X3721100Y4914900D02*
G01*
X3771900Y4914900D01*
X2197100Y1358900D02*
G01*
X2247900Y1358900D01*
X2197100Y1612900D02*
G01*
X2247900Y1612900D01*
X2197100Y1866900D02*
G01*
X2247900Y1866900D01*
X2197100Y2120900D02*
G01*
X2247900Y2120900D01*
X2197100Y2374900D02*
G01*
X2247900Y2374900D01*
X2197100Y2628900D02*
G01*
X2247900Y2628900D01*
X2197100Y2882900D02*
G01*
X2247900Y2882900D01*
X2197100Y3136900D02*
G01*
X2247900Y3136900D01*
X2197100Y3390900D02*
G01*
X2247900Y3390900D01*
X2197100Y3644900D02*
G01*
X2247900Y3644900D01*
X2197100Y3898900D02*
G01*
X2247900Y3898900D01*
X2197100Y4152900D02*
G01*
X2247900Y4152900D01*
X2197100Y4406900D02*
G01*
X2247900Y4406900D01*
X2197100Y4660900D02*
G01*
X2247900Y4660900D01*
X2197100Y4914900D02*
G01*
X2247900Y4914900D01*
M02*
