M48
METRIC,LZ,000.000
;FILE_FORMAT=3:3
;TYPE=PLATED
;Layer: Drill PTH
;EasyEDA v6.4.17, 2021-03-05T14:08:29+01:00
;e79a21ba503147348f05fdbb2aa03285,d81f5713b0f84f0ea64707c539aa2fa5,10
;Gerber Generator version 0.2
;Holesize 1 = 0.712 mm
T01C0.712
;Holesize 2 = 0.800 mm
T02C0.800
;Holesize 3 = 0.900 mm
T03C0.900
;Holesize 4 = 0.915 mm
T04C0.915
;Holesize 5 = 1.000 mm
T05C1.000
;Holesize 6 = 1.250 mm
T06C1.250
;Holesize 7 = 1.400 mm
T07C1.400
%
G05
G90
T01
X014732Y023241
X014732Y028321
T02
X014986Y047228
X014986Y045228
T03
X017145Y032385
X017145Y040005
X044196Y055372
X051816Y055372
X012192Y032385
X012192Y040005
X047244Y042164
X047244Y034544
X046609Y022403
X046609Y028905
T04
X037465Y013589
X037465Y016129
X037465Y018669
X037465Y021209
X037465Y023749
X037465Y026289
X037465Y028829
X037465Y031369
X037465Y033909
X037465Y036449
X037465Y038989
X037465Y041529
X037465Y044069
X037465Y046609
X037465Y049149
X022225Y013589
X022225Y016129
X022225Y018669
X022225Y021209
X022225Y023749
X022225Y026289
X022225Y028829
X022225Y031369
X022225Y033909
X022225Y036449
X022225Y038989
X022225Y041529
X022225Y044069
X022225Y046609
X022225Y049149
T05
X060198Y029464
X057658Y031623
X055118Y029464
X041755Y049276
X050955Y049276
X051181Y042827
X051181Y033627
T06
X057912Y051816
X057912Y048006
X057785Y040259
X057785Y036449
T07
X058039Y018288
X058039Y014478
X058039Y010668
M30
